<svg xmlns="http://www.w3.org/2000/svg" xmlns:xlink="http://www.w3.org/1999/xlink" viewBox="0,0,256,256" width="80px" height="80px"><g fill="none" fill-rule="nonzero" stroke="none" stroke-width="1" stroke-linecap="butt" stroke-linejoin="miter" stroke-miterlimit="10" stroke-dasharray="" stroke-dashoffset="0" font-family="none" font-weight="none" font-size="none" text-anchor="none" style="mix-blend-mode: normal"><g transform="scale(3.2,3.2)"><path d="M74.5,11.5h-32.5v57h32.5c1.105,0 2,-0.895 2,-2v-53c0,-1.105 -0.895,-2 -2,-2z" fill="#ffffff"></path><path d="M46.5,76l-43,-8v-56l43,-8z" fill="#388f85"></path><path d="M30.26,54l-4.82,-9.12c-0.272,-0.599 -0.464,-1.231 -0.57,-1.88h-0.08c-0.163,0.682 -0.377,1.35 -0.64,2l-4.85,9h-7.51l8.92,-14l-8.16,-14h7.67l4,8.39c0.355,0.758 0.636,1.548 0.84,2.36h0.08c0.16,-0.54 0.45,-1.36 0.88,-2.44l4.45,-8.31h7l-8.36,13.88l8.63,14.12z" fill="#ffffff"></path><path d="M71,29h-15v-7h15zM57,28h13v-5h-13zM53,29h-6.25v-1h5.25v-5h-5.25v-1h6.25zM71,39h-15v-7h15zM57,38h13v-5h-13zM71,49h-15v-7h15zM57,48h13v-5h-13zM53,39h-6.25v-1h5.25v-5h-5.25v-1h6.25zM53,49h-6.25v-1h5.25v-5h-5.25v-1h6.25zM71,59h-15v-7h15zM57,58h13v-5h-13zM53,59h-6.25v-1h5.25v-5h-5.25v-1h6.25z" fill="#388f85"></path><path d="M37.75,55h-7.48c-0.189,0 -0.362,-0.106 -0.447,-0.275l-4.83,-9.62c-0.003,-0.006 -0.006,-0.012 -0.008,-0.018c-0.062,-0.137 -0.12,-0.274 -0.174,-0.414c-0.062,0.173 -0.128,0.345 -0.197,0.515l-4.787,9.537c-0.085,0.169 -0.258,0.275 -0.447,0.275h-7.52c-0.181,0 -0.348,-0.098 -0.436,-0.255c-0.088,-0.158 -0.085,-0.352 0.009,-0.506l8.697,-14.25l-8.016,-14.245c-0.087,-0.155 -0.086,-0.344 0.004,-0.498c0.09,-0.154 0.254,-0.246 0.432,-0.246h7.67c0.197,0 0.375,0.115 0.456,0.295l4,8.89c0.163,0.348 0.311,0.705 0.445,1.068c0.128,-0.347 0.273,-0.725 0.435,-1.128l4.468,-8.851c0.085,-0.168 0.258,-0.274 0.446,-0.274h7c0.179,0 0.344,0.096 0.434,0.25c0.089,0.155 0.088,0.346 -0.001,0.501l-8.213,14.126l8.491,14.368c0.091,0.154 0.093,0.346 0.003,0.502c-0.089,0.156 -0.254,0.253 -0.434,0.253zM30.579,54h6.295l-8.194,-13.866c-0.092,-0.155 -0.093,-0.349 -0.001,-0.505l7.922,-13.629h-5.823l-4.312,8.536c-0.483,1.218 -0.729,1.958 -0.847,2.356c-0.063,0.212 -0.258,0.358 -0.479,0.358c-0.229,0 -0.509,-0.156 -0.565,-0.378c-0.196,-0.779 -0.468,-1.543 -0.808,-2.27l-3.87,-8.602h-6.492l7.741,13.755c0.089,0.158 0.085,0.352 -0.009,0.506l-8.386,13.739h6.32l4.632,-9.225c0.236,-0.586 0.443,-1.235 0.601,-1.892c0.054,-0.226 0.255,-0.384 0.486,-0.384c0.245,0 0.534,0.178 0.574,0.419c0.099,0.604 0.276,1.19 0.527,1.745zM74.5,69h-28v-1h28c0.827,0 1.5,-0.673 1.5,-1.5v-53c0,-0.827 -0.673,-1.5 -1.5,-1.5h-28.5v-1h28.5c1.379,0 2.5,1.122 2.5,2.5v53c0,1.379 -1.121,2.5 -2.5,2.5z" fill="#388f85"></path><path d="M47,76.602l-44,-8.186v-56.832l44,-8.186zM4,67.584l42,7.814v-70.796l-42,7.814z" fill="#388f85"></path></g></g></svg>