<svg xmlns="http://www.w3.org/2000/svg" xmlns:xlink="http://www.w3.org/1999/xlink" viewBox="0,0,256,256" width="144px" height="144px"><g fill="none" fill-rule="nonzero" stroke="none" stroke-width="1" stroke-linecap="butt" stroke-linejoin="miter" stroke-miterlimit="10" stroke-dasharray="" stroke-dashoffset="0" font-family="none" font-weight="none" font-size="none" text-anchor="none" style="mix-blend-mode: normal"><g transform="scale(5.33333,5.33333)"><path d="M6,42v-36h36v36z" fill="#ffd600"></path><path d="M29.538,32.947c0.692,1.124 1.444,2.201 3.037,2.201c1.338,0 2.04,-0.665 2.04,-1.585c0,-1.101 -0.726,-1.492 -2.198,-2.133l-0.807,-0.344c-2.329,-0.988 -3.878,-2.226 -3.878,-4.841c0,-2.41 1.845,-4.244 4.728,-4.244c2.053,0 3.528,0.711 4.592,2.573l-2.514,1.607c-0.553,-0.988 -1.151,-1.377 -2.078,-1.377c-0.946,0 -1.545,0.597 -1.545,1.377c0,0.964 0.6,1.354 1.985,1.951l0.807,0.344c2.745,1.169 4.293,2.363 4.293,5.047c0,2.892 -2.284,4.477 -5.35,4.477c-2.999,0 -4.702,-1.505 -5.65,-3.368zM17.952,33.029c0.506,0.906 1.275,1.603 2.381,1.603c1.058,0 1.667,-0.418 1.667,-2.043v-10.589h3.333v11.101c0,3.367 -1.953,4.899 -4.805,4.899c-2.577,0 -4.437,-1.746 -5.195,-3.368z" fill="#000001"></path></g></g><g fill="#ffffff" fill-rule="nonzero" stroke="none" stroke-width="1" stroke-linecap="butt" stroke-linejoin="miter" stroke-miterlimit="10" stroke-dasharray="" stroke-dashoffset="0" font-family="none" font-weight="none" font-size="none" text-anchor="none" style="mix-blend-mode: normal"><g><path d="M57.07667,84.19167v4.09h-16.43v13.43h19.09v4.09h-24.09v-37.91h23.83v4.11h-18.83v12.19zM68.48667,77.63167l6.17,10.28l6.25,-10.28h5.63l-9.22,13.93l9.5,14.24h-5.57l-6.51,-10.54l-6.51,10.54h-5.6l9.51,-14.24l-9.22,-13.93zM115.43667,91.58167v0.45c0,4.28667 -0.98,7.74 -2.94,10.36c-1.96,2.62 -4.61667,3.93 -7.97,3.93v0c-3.42,0 -6.11,-1.08333 -8.07,-3.25v0v13.57h-4.82v-39.01h4.4l0.24,3.12c1.96,-2.42667 4.68333,-3.64 8.17,-3.64v0c3.38667,0 6.06667,1.27333 8.04,3.82c1.96667,2.55333 2.95,6.10333 2.95,10.65zM110.61667,91.48167v0c0,-3.18 -0.67667,-5.69 -2.03,-7.53c-1.35333,-1.84 -3.21,-2.76 -5.57,-2.76v0c-2.91333,0 -5.1,1.29333 -6.56,3.88v0v13.47c1.44,2.56667 3.64333,3.85 6.61,3.85v0c2.31333,0 4.15,-0.91667 5.51,-2.75c1.36,-1.82667 2.04,-4.54667 2.04,-8.16zM135.17667,77.47167v4.48c-0.72667,-0.12 -1.51667,-0.18 -2.37,-0.18v0c-3.16,0 -5.30333,1.34333 -6.43,4.03v0v20h-4.82v-28.17h4.69l0.08,3.25c1.58,-2.51333 3.82,-3.77 6.72,-3.77v0c0.93333,0 1.64333,0.12 2.13,0.36zM150.80667,106.32167v0c-3.82,0 -6.93,-1.25333 -9.33,-3.76c-2.39333,-2.50667 -3.59,-5.86 -3.59,-10.06v0v-0.89c0,-2.79333 0.53333,-5.29 1.6,-7.49c1.06667,-2.19333 2.56,-3.91 4.48,-5.15c1.92,-1.24 4,-1.86 6.24,-1.86v0c3.66,0 6.50667,1.20667 8.54,3.62c2.03333,2.40667 3.05,5.86 3.05,10.36v0v2.01h-19.09c0.06667,2.77333 0.87667,5.01667 2.43,6.73c1.55333,1.70667 3.53,2.56 5.93,2.56v0c1.7,0 3.14,-0.34667 4.32,-1.04c1.18,-0.69333 2.21333,-1.61333 3.1,-2.76v0l2.94,2.29c-2.36,3.62667 -5.9,5.44 -10.62,5.44zM150.20667,81.06167v0c-1.94667,0 -3.58,0.71 -4.9,2.13c-1.32,1.41333 -2.13667,3.39667 -2.45,5.95v0h14.12v-0.37c-0.14,-2.44667 -0.8,-4.34333 -1.98,-5.69c-1.18,-1.34667 -2.77667,-2.02 -4.79,-2.02zM183.77667,98.33167v0c0,-1.3 -0.49333,-2.31 -1.48,-3.03c-0.98,-0.72667 -2.69,-1.35 -5.13,-1.87c-2.43333,-0.52 -4.36667,-1.14333 -5.8,-1.87c-1.43333,-0.73333 -2.49333,-1.60333 -3.18,-2.61c-0.68667,-1.00667 -1.03,-2.20333 -1.03,-3.59v0c0,-2.30667 0.97667,-4.26 2.93,-5.86c1.95333,-1.59333 4.45,-2.39 7.49,-2.39v0c3.19333,0 5.78333,0.82333 7.77,2.47c1.98667,1.64667 2.98,3.75667 2.98,6.33v0h-4.84c0,-1.32 -0.56,-2.45667 -1.68,-3.41c-1.12,-0.96 -2.53,-1.44 -4.23,-1.44v0c-1.75333,0 -3.12667,0.38333 -4.12,1.15c-0.98667,0.76667 -1.48,1.76333 -1.48,2.99v0c0,1.16667 0.46,2.04333 1.38,2.63c0.92,0.59333 2.58333,1.16 4.99,1.7c2.4,0.53333 4.34667,1.17333 5.84,1.92c1.49333,0.74667 2.6,1.64667 3.32,2.7c0.72,1.05333 1.08,2.33333 1.08,3.84v0c0,2.52 -1.00667,4.54 -3.02,6.06c-2.01333,1.51333 -4.62667,2.27 -7.84,2.27v0c-2.25333,0 -4.25,-0.39667 -5.99,-1.19c-1.73333,-0.8 -3.09,-1.91667 -4.07,-3.35c-0.98,-1.43333 -1.47,-2.98333 -1.47,-4.65v0h4.82c0.08667,1.61333 0.73333,2.89333 1.94,3.84c1.20667,0.94667 2.79667,1.42 4.77,1.42v0c1.82667,0 3.29,-0.36667 4.39,-1.1c1.10667,-0.74 1.66,-1.72667 1.66,-2.96zM211.27667,98.33167v0c0,-1.3 -0.49333,-2.31 -1.48,-3.03c-0.98,-0.72667 -2.69,-1.35 -5.13,-1.87c-2.43333,-0.52 -4.36667,-1.14333 -5.8,-1.87c-1.43333,-0.73333 -2.49333,-1.60333 -3.18,-2.61c-0.68667,-1.00667 -1.03,-2.20333 -1.03,-3.59v0c0,-2.30667 0.97667,-4.26 2.93,-5.86c1.95333,-1.59333 4.45,-2.39 7.49,-2.39v0c3.19333,0 5.78333,0.82333 7.77,2.47c1.98667,1.64667 2.98,3.75667 2.98,6.33v0h-4.84c0,-1.32 -0.56,-2.45667 -1.68,-3.41c-1.12,-0.96 -2.53,-1.44 -4.23,-1.44v0c-1.75333,0 -3.12667,0.38333 -4.12,1.15c-0.98667,0.76667 -1.48,1.76333 -1.48,2.99v0c0,1.16667 0.46,2.04333 1.38,2.63c0.92,0.59333 2.58333,1.16 4.99,1.7c2.4,0.53333 4.34667,1.17333 5.84,1.92c1.49333,0.74667 2.6,1.64667 3.32,2.7c0.72,1.05333 1.08,2.33333 1.08,3.84v0c0,2.52 -1.00667,4.54 -3.02,6.06c-2.01333,1.51333 -4.62667,2.27 -7.84,2.27v0c-2.25333,0 -4.25,-0.39667 -5.99,-1.19c-1.73333,-0.8 -3.09,-1.91667 -4.07,-3.35c-0.98,-1.43333 -1.47,-2.98333 -1.47,-4.65v0h4.82c0.08667,1.61333 0.73333,2.89333 1.94,3.84c1.20667,0.94667 2.79667,1.42 4.77,1.42v0c1.82667,0 3.29,-0.36667 4.39,-1.1c1.10667,-0.74 1.66,-1.72667 1.66,-2.96z"></path></g></g></svg>