<svg xmlns="http://www.w3.org/2000/svg" xmlns:xlink="http://www.w3.org/1999/xlink" viewBox="0,0,256,256" width="144px" height="144px"><g transform=""><g fill="none" fill-rule="nonzero" stroke="none" stroke-width="1" stroke-linecap="butt" stroke-linejoin="miter" stroke-miterlimit="10" stroke-dasharray="" stroke-dashoffset="0" font-family="none" font-weight="none" font-size="none" text-anchor="none" style="mix-blend-mode: normal"><g transform="scale(5.33333,5.33333)"><path d="M17.204,19.122l-4.907,2.715c-0.184,0.101 -0.297,0.289 -0.297,0.492v5.433c0,0.203 0.113,0.39 0.297,0.492l4.908,2.717c0.183,0.101 0.41,0.101 0.593,0l4.907,-2.717c0.182,-0.102 0.295,-0.289 0.295,-0.492v-5.433c0,-0.203 -0.113,-0.39 -0.297,-0.492l-4.906,-2.715c-0.092,-0.051 -0.195,-0.076 -0.297,-0.076c-0.103,0 -0.205,0.025 -0.297,0.076M42.451,24.013l-0.818,0.452c-0.031,0.017 -0.049,0.048 -0.049,0.082v0.906c0,0.034 0.019,0.065 0.049,0.082l0.818,0.453c0.031,0.017 0.068,0.017 0.099,0l0.818,-0.453c0.03,-0.017 0.049,-0.048 0.049,-0.082v-0.906c0,-0.034 -0.019,-0.065 -0.05,-0.082l-0.818,-0.452c-0.015,-0.009 -0.032,-0.013 -0.049,-0.013c-0.017,0 -0.034,0.004 -0.049,0.013" fill="#388e3c"></path><path d="M35.751,13.364l-2.389,-1.333c-0.075,-0.042 -0.167,-0.041 -0.241,0.003c-0.074,0.044 -0.12,0.123 -0.12,0.209l-0.001,8.052l-2.203,-1.219c-0.092,-0.051 -0.195,-0.076 -0.297,-0.076c-0.102,0 -0.205,0.025 -0.297,0.076h0.001l-4.907,2.715c-0.184,0.101 -0.297,0.289 -0.297,0.491v5.433c0,0.203 0.113,0.39 0.297,0.492l4.908,2.717c0.183,0.101 0.41,0.101 0.593,0l4.907,-2.717c0.182,-0.101 0.295,-0.289 0.295,-0.492v-13.927c0,-0.176 -0.096,-0.338 -0.249,-0.424zM32.866,26.458l-2.23,1.235c-0.083,0.046 -0.186,0.046 -0.269,0l-2.231,-1.235c-0.085,-0.046 -0.136,-0.132 -0.136,-0.224v-2.47c0,-0.092 0.051,-0.177 0.135,-0.224l2.231,-1.234h-0.001c0.042,-0.023 0.088,-0.034 0.135,-0.034c0.047,0 0.093,0.012 0.135,0.034l2.23,1.234c0.084,0.047 0.135,0.133 0.135,0.225v2.47c0,0.091 -0.051,0.177 -0.134,0.223z" fill="#37474f"></path><path d="M17.204,19.122l-5.204,8.64c0,0.203 0.113,0.39 0.297,0.492l4.908,2.717c0.183,0.101 0.41,0.101 0.593,0l5.202,-8.642c0,-0.203 -0.113,-0.39 -0.297,-0.492l-4.906,-2.715c-0.092,-0.051 -0.195,-0.076 -0.297,-0.076c-0.103,0 -0.205,0.025 -0.297,0.076" fill="#2e7d32"></path><path d="M17.204,19.122l-4.907,2.715c-0.184,0.101 -0.297,0.289 -0.297,0.492l5.204,8.642c0.183,0.101 0.41,0.101 0.593,0l4.907,-2.717c0.183,-0.102 0.296,-0.289 0.296,-0.492l-5.203,-8.64c-0.092,-0.051 -0.195,-0.076 -0.297,-0.076c-0.103,0 -0.205,0.025 -0.297,0.076" fill="#4caf50"></path><path d="M47.703,21.791l-4.906,-2.715c-0.092,-0.051 -0.195,-0.076 -0.297,-0.076c-0.102,0 -0.205,0.025 -0.297,0.076h0.001l-4.907,2.715c-0.183,0.101 -0.297,0.293 -0.297,0.503v5.411c0,0.209 0.114,0.402 0.297,0.503l4.908,2.717c0.184,0.102 0.409,0.102 0.593,0l2.263,-1.253c0.207,-0.115 0.206,-0.412 -0.002,-0.526l-4.924,-2.687c-0.083,-0.047 -0.135,-0.134 -0.135,-0.228v-2.466c0,-0.092 0.05,-0.177 0.13,-0.221l2.235,-1.236h-0.001c0.042,-0.023 0.088,-0.034 0.135,-0.034c0.047,0 0.093,0.012 0.135,0.034l2.235,1.237c0.08,0.044 0.13,0.129 0.13,0.221v2.012c0,0.086 0.046,0.166 0.121,0.209c0.075,0.042 0.167,0.042 0.242,-0.001l2.398,-1.393c0.148,-0.086 0.24,-0.245 0.24,-0.417v-1.88c0,-0.211 -0.114,-0.404 -0.297,-0.505zM10.703,21.791l-4.906,-2.715c-0.092,-0.051 -0.195,-0.076 -0.297,-0.076c-0.102,0 -0.205,0.025 -0.297,0.076h0.001l-4.907,2.715c-0.183,0.101 -0.297,0.293 -0.297,0.503v7.465c0,0.086 0.046,0.166 0.121,0.209c0.075,0.042 0.167,0.042 0.242,-0.001l2.398,-1.393c0.148,-0.086 0.239,-0.245 0.239,-0.417v-4.393c0,-0.092 0.05,-0.177 0.13,-0.221l2.235,-1.236v0c0.042,-0.023 0.088,-0.034 0.135,-0.034c0.047,0 0.093,0.012 0.135,0.034l2.235,1.237c0.08,0.044 0.13,0.129 0.13,0.221v4.393c0,0.172 0.091,0.331 0.24,0.417l2.398,1.393c0.075,0.043 0.167,0.043 0.242,0.001c0.074,-0.044 0.12,-0.124 0.12,-0.21v-7.464c0,-0.21 -0.114,-0.403 -0.297,-0.504z" fill="#37474f"></path></g></g><g fill="#458e37" fill-rule="nonzero" stroke="none" stroke-width="1" stroke-linecap="butt" stroke-linejoin="miter" stroke-miterlimit="10" stroke-dasharray="" stroke-dashoffset="0" font-family="none" font-weight="none" font-size="none" text-anchor="none" style="mix-blend-mode: normal"><g><path d="M116.77833,181.575v-18.85h3.52v18.8c0,2.54 -0.76333,4.52667 -2.29,5.96c-1.52667,1.43333 -3.56,2.15 -6.1,2.15v0c-2.63333,0 -4.68667,-0.67667 -6.16,-2.03c-1.46667,-1.34667 -2.2,-3.23333 -2.2,-5.66v0h3.5c0,1.51333 0.41333,2.69667 1.24,3.55c0.83333,0.85333 2.04,1.28 3.62,1.28v0c1.44667,0 2.61667,-0.45667 3.51,-1.37c0.89333,-0.91333 1.34667,-2.19 1.36,-3.83zM134.07833,177.435v0c-3,-0.86 -5.18333,-1.92 -6.55,-3.18c-1.36667,-1.26 -2.05,-2.81333 -2.05,-4.66v0c0,-2.08667 0.83333,-3.81333 2.5,-5.18c1.67333,-1.36667 3.84667,-2.05 6.52,-2.05v0c1.82,0 3.44667,0.35 4.88,1.05c1.42667,0.70667 2.53,1.68 3.31,2.92c0.78667,1.24 1.18,2.59667 1.18,4.07v0h-3.52c0,-1.60667 -0.51,-2.87 -1.53,-3.79c-1.02,-0.91333 -2.46,-1.37 -4.32,-1.37v0c-1.72667,0 -3.07333,0.38 -4.04,1.14c-0.96667,0.76 -1.45,1.81333 -1.45,3.16v0c0,1.08 0.46,1.99333 1.38,2.74c0.91333,0.74667 2.47333,1.43 4.68,2.05c2.20667,0.62 3.93333,1.30333 5.18,2.05c1.24667,0.75333 2.17,1.62667 2.77,2.62c0.6,1 0.9,2.17333 0.9,3.52v0c0,2.15333 -0.83667,3.87667 -2.51,5.17c-1.68,1.29333 -3.92333,1.94 -6.73,1.94v0c-1.82,0 -3.52,-0.35 -5.1,-1.05c-1.58,-0.7 -2.8,-1.65667 -3.66,-2.87c-0.85333,-1.21333 -1.28,-2.59333 -1.28,-4.14v0h3.52c0,1.60667 0.59,2.87333 1.77,3.8c1.18667,0.93333 2.77,1.4 4.75,1.4v0c1.84667,0 3.26333,-0.37667 4.25,-1.13c0.98667,-0.75333 1.48,-1.78333 1.48,-3.09c0,-1.3 -0.45667,-2.30333 -1.37,-3.01c-0.91333,-0.71333 -2.56667,-1.41667 -4.96,-2.11z"></path></g></g></g></svg>